<mxfile host="app.diagrams.net" agent="Mozilla/5.0 (Windows NT 10.0; Win64; x64) AppleWebKit/537.36 (KHTML, like Gecko) Chrome/128.0.0.0 Safari/537.36 OPR/114.0.0.0" version="24.8.3">
  <diagram name="Page-1" id="5f0bae14-7c28-e335-631c-24af17079c00">
    <mxGraphModel dx="1633" dy="755" grid="1" gridSize="10" guides="1" tooltips="1" connect="1" arrows="1" fold="1" page="1" pageScale="1" pageWidth="1100" pageHeight="850" background="none" math="0" shadow="0">
      <root>
        <mxCell id="0" />
        <mxCell id="1" parent="0" />
        <mxCell id="39150e848f15840c-1" value="" style="verticalAlign=top;align=left;spacingTop=8;spacingLeft=2;spacingRight=12;shape=cube;size=10;direction=south;fontStyle=4;html=1;rounded=0;shadow=0;comic=0;labelBackgroundColor=none;strokeWidth=1;fontFamily=Verdana;fontSize=12" parent="1" vertex="1">
          <mxGeometry x="120" y="75" width="330" height="220" as="geometry" />
        </mxCell>
        <mxCell id="39150e848f15840c-4" value="" style="html=1;rounded=0;shadow=0;comic=0;labelBackgroundColor=none;strokeWidth=1;fontFamily=Verdana;fontSize=12;align=center;" parent="1" vertex="1">
          <mxGeometry x="165" y="110" width="240" height="160" as="geometry" />
        </mxCell>
        <mxCell id="Fzi-b2xOBe4scgr0YL1d-1" value="«component»&lt;br&gt;&lt;b&gt;FrontEnd&lt;/b&gt;" style="html=1;whiteSpace=wrap;" vertex="1" parent="1">
          <mxGeometry x="200" y="190" width="170" height="70" as="geometry" />
        </mxCell>
        <mxCell id="Fzi-b2xOBe4scgr0YL1d-2" value="&lt;span style=&quot;font-family: Verdana; text-wrap: nowrap;&quot;&gt;«component»&lt;/span&gt;&lt;br style=&quot;font-family: Verdana; text-wrap: nowrap;&quot;&gt;&lt;b style=&quot;font-family: Verdana; text-wrap: nowrap;&quot;&gt;Browser&lt;/b&gt;" style="text;html=1;align=center;verticalAlign=middle;whiteSpace=wrap;rounded=0;" vertex="1" parent="1">
          <mxGeometry x="235" y="130" width="100" height="60" as="geometry" />
        </mxCell>
        <mxCell id="Fzi-b2xOBe4scgr0YL1d-3" value="&lt;b&gt;&lt;font style=&quot;font-size: 14px;&quot;&gt;LocalHost&lt;/font&gt;&lt;/b&gt;" style="text;html=1;align=center;verticalAlign=middle;whiteSpace=wrap;rounded=0;" vertex="1" parent="1">
          <mxGeometry x="248.75" y="75" width="72.5" height="40" as="geometry" />
        </mxCell>
        <mxCell id="Fzi-b2xOBe4scgr0YL1d-4" value="" style="endArrow=none;html=1;rounded=0;exitX=0;exitY=0;exitDx=105;exitDy=0;exitPerimeter=0;entryX=0;entryY=0;entryDx=115;entryDy=330;entryPerimeter=0;" edge="1" parent="1" source="39150e848f15840c-1" target="Fzi-b2xOBe4scgr0YL1d-5">
          <mxGeometry width="50" height="50" relative="1" as="geometry">
            <mxPoint x="520" y="410" as="sourcePoint" />
            <mxPoint x="588.02" y="196.94000000000005" as="targetPoint" />
          </mxGeometry>
        </mxCell>
        <mxCell id="Fzi-b2xOBe4scgr0YL1d-5" value="" style="verticalAlign=top;align=left;spacingTop=8;spacingLeft=2;spacingRight=12;shape=cube;size=10;direction=south;fontStyle=4;html=1;rounded=0;shadow=0;comic=0;labelBackgroundColor=none;strokeWidth=1;fontFamily=Verdana;fontSize=12" vertex="1" parent="1">
          <mxGeometry x="580" y="70" width="330" height="220" as="geometry" />
        </mxCell>
        <mxCell id="Fzi-b2xOBe4scgr0YL1d-7" value="" style="verticalAlign=top;align=left;spacingTop=8;spacingLeft=2;spacingRight=12;shape=cube;size=10;direction=south;fontStyle=4;html=1;rounded=0;shadow=0;comic=0;labelBackgroundColor=none;strokeWidth=1;fontFamily=Verdana;fontSize=12" vertex="1" parent="1">
          <mxGeometry x="590" y="130" width="130" height="100" as="geometry" />
        </mxCell>
        <mxCell id="Fzi-b2xOBe4scgr0YL1d-8" value="&lt;span style=&quot;font-size: 14px;&quot;&gt;&lt;b&gt;BackEnd&lt;/b&gt;&lt;/span&gt;" style="text;html=1;align=center;verticalAlign=middle;whiteSpace=wrap;rounded=0;" vertex="1" parent="1">
          <mxGeometry x="708.75" y="80" width="72.5" height="40" as="geometry" />
        </mxCell>
        <mxCell id="Fzi-b2xOBe4scgr0YL1d-9" value="&lt;font style=&quot;font-size: 18px;&quot;&gt;http/s&lt;/font&gt;" style="text;html=1;align=center;verticalAlign=middle;whiteSpace=wrap;rounded=0;" vertex="1" parent="1">
          <mxGeometry x="490" y="190" width="60" height="30" as="geometry" />
        </mxCell>
        <mxCell id="Fzi-b2xOBe4scgr0YL1d-14" value="&lt;font style=&quot;font-size: 14px;&quot;&gt;HTTP Server&lt;/font&gt;" style="text;html=1;align=center;verticalAlign=middle;whiteSpace=wrap;rounded=0;" vertex="1" parent="1">
          <mxGeometry x="605" y="157.5" width="100" height="25" as="geometry" />
        </mxCell>
        <mxCell id="Fzi-b2xOBe4scgr0YL1d-15" value="" style="verticalAlign=top;align=left;spacingTop=8;spacingLeft=2;spacingRight=12;shape=cube;size=10;direction=south;fontStyle=4;html=1;rounded=0;shadow=0;comic=0;labelBackgroundColor=none;strokeWidth=1;fontFamily=Verdana;fontSize=12" vertex="1" parent="1">
          <mxGeometry x="760" y="130" width="130" height="100" as="geometry" />
        </mxCell>
        <mxCell id="Fzi-b2xOBe4scgr0YL1d-16" value="&lt;font style=&quot;font-size: 14px;&quot;&gt;Database&lt;/font&gt;" style="text;html=1;align=center;verticalAlign=middle;whiteSpace=wrap;rounded=0;" vertex="1" parent="1">
          <mxGeometry x="770" y="157.5" width="100" height="25" as="geometry" />
        </mxCell>
        <mxCell id="Fzi-b2xOBe4scgr0YL1d-17" value="" style="endArrow=none;html=1;rounded=0;exitX=0;exitY=0;exitDx=45;exitDy=0;exitPerimeter=0;entryX=0;entryY=0;entryDx=55;entryDy=130;entryPerimeter=0;" edge="1" parent="1" source="Fzi-b2xOBe4scgr0YL1d-7" target="Fzi-b2xOBe4scgr0YL1d-15">
          <mxGeometry width="50" height="50" relative="1" as="geometry">
            <mxPoint x="520" y="420" as="sourcePoint" />
            <mxPoint x="570" y="370" as="targetPoint" />
          </mxGeometry>
        </mxCell>
        <mxCell id="Fzi-b2xOBe4scgr0YL1d-18" value="&lt;font style=&quot;font-size: 14px;&quot;&gt;tcp&lt;/font&gt;" style="text;html=1;align=center;verticalAlign=middle;whiteSpace=wrap;rounded=0;" vertex="1" parent="1">
          <mxGeometry x="710" y="152.5" width="60" height="30" as="geometry" />
        </mxCell>
      </root>
    </mxGraphModel>
  </diagram>
</mxfile>
